<svg width="32" height="32" fill="none" xmlns="http://www.w3.org/2000/svg"><path fill-rule="evenodd" clip-rule="evenodd" d="M9.667 13.333a6.333 6.333 0 1 1 12.666 0 6.333 6.333 0 0 1-12.666 0ZM16 9a4.333 4.333 0 1 0 0 8.667A4.333 4.333 0 0 0 16 9Z" fill="#268CDE"/><path fill-rule="evenodd" clip-rule="evenodd" d="M4.7 11.81A11.05 11.05 0 0 1 15.711 1.666h.576a11.05 11.05 0 0 1 11.013 10.142 11.923 11.923 0 0 1-2.653 8.528l-6.39 7.816a2.916 2.916 0 0 1-4.515 0l-6.391-7.816a11.924 11.924 0 0 1-2.653-8.528Zm11.012-8.143a9.05 9.05 0 0 0-9.02 8.306A9.924 9.924 0 0 0 8.9 19.072l6.39 7.816a.916.916 0 0 0 1.42 0l6.39-7.816a9.924 9.924 0 0 0 2.208-7.098 9.05 9.05 0 0 0-9.02-8.306h-.576Z" fill="#268CDE"/></svg>