<svg width="440" height="579" fill="none" xmlns="http://www.w3.org/2000/svg"><path fill-rule="evenodd" clip-rule="evenodd" d="M67.64 201.524c-6.759 62.795-6.458 135.218 2.947 197.757 5.204 34.605 33.446 61.133 68.308 64.165l36.435 3.166a1318.149 1318.149 0 0 0 228.342 0l36.434-3.166c34.863-3.032 63.106-29.56 68.309-64.165 9.404-62.539 9.706-134.958 2.946-197.754a737.188 737.188 0 0 0-2.946-21.808c-5.203-34.604-33.446-61.133-68.309-64.164l-36.434-3.167a1318.347 1318.347 0 0 0-228.342 0l-36.435 3.167c-34.862 3.031-63.104 29.56-68.308 64.164a739.345 739.345 0 0 0-2.948 21.805Zm110.823-53.084a1282.115 1282.115 0 0 1 222.075 0l36.434 3.167c18.197 1.582 32.94 15.43 35.656 33.493.283 1.876.558 3.753.826 5.631l-134.16 74.533a102.532 102.532 0 0 1-99.588 0l-134.157-74.532c.266-1.878.541-3.755.823-5.632 2.716-18.063 17.459-31.911 35.657-33.493l36.434-3.167Zm299.417 81.228a701.954 701.954 0 0 1-5.252 164.231c-2.716 18.065-17.459 31.912-35.656 33.495l-36.434 3.168a1282.313 1282.313 0 0 1-222.075 0l-36.434-3.168c-18.198-1.583-32.941-15.43-35.657-33.495a702.068 702.068 0 0 1-5.252-164.231l121.012 67.229c41.897 23.276 92.84 23.276 134.735 0l121.013-67.229Z" fill="url(#a)" opacity=".05"/><defs><linearGradient id="a" x1="43.407" y1="521.752" x2="593.286" y2="380.431" gradientUnits="userSpaceOnUse"><stop offset="0" stop-color="#D74596"/><stop offset=".366" stop-color="#F2464E"/><stop offset=".686" stop-color="#857ADD"/><stop offset="1" stop-color="#0192DE"/></linearGradient></defs></svg>