<svg width="32" height="32" fill="none" xmlns="http://www.w3.org/2000/svg"><path fill-rule="evenodd" clip-rule="evenodd" d="M7.787 13.142a22.956 22.956 0 0 0 11.895 11.55l.017.007 1.018.454a3 3 0 0 0 3.653-.983l1.7-2.352a.333.333 0 0 0-.062-.455l-2.966-2.393a.334.334 0 0 0-.477.061L21.41 20.59a1 1 0 0 1-1.215.316A17.85 17.85 0 0 1 11.3 12.01a1 1 0 0 1 .316-1.215l1.558-1.155a.333.333 0 0 0 .06-.477l-2.393-2.967a.333.333 0 0 0-.454-.06L8.024 7.842a3 3 0 0 0-.976 3.674l.738 1.623.001.002ZM18.893 26.53A24.955 24.955 0 0 1 5.97 13.974l-.002-.003-.74-1.626a5 5 0 0 1 1.626-6.123l2.364-1.707a2.333 2.333 0 0 1 3.182.426l2.393 2.967a2.333 2.333 0 0 1-.426 3.34l-.893.662a15.856 15.856 0 0 0 6.824 6.823l.661-.893a2.333 2.333 0 0 1 3.34-.426l2.966 2.393a2.334 2.334 0 0 1 .426 3.182l-1.699 2.352a5 5 0 0 1-6.087 1.639l-1.01-.45Z" fill="#268CDE"/></svg>