<svg width="48" height="48" fill="none" xmlns="http://www.w3.org/2000/svg"><rect x=".5" y=".5" width="47" height="47" rx="23.5" fill="#fff"/><rect x=".5" y=".5" width="47" height="47" rx="23.5" stroke="url(#a)"/><path d="M29.659 16.929a1 1 0 0 1 1.414 1.414L25.416 24l5.657 5.657a1 1 0 0 1-1.415 1.414l-5.656-5.657-5.657 5.657a1 1 0 0 1-1.414-1.414L22.587 24l-5.656-5.657a1 1 0 0 1 1.414-1.414l5.657 5.657 5.657-5.657Z" fill="#131415"/><defs><linearGradient id="a" x1="-2.075" y1="54.616" x2="57.494" y2="42.31" gradientUnits="userSpaceOnUse"><stop offset="0" stop-color="#D74596"/><stop offset=".366" stop-color="#F2464E"/><stop offset=".686" stop-color="#857ADD"/><stop offset="1" stop-color="#0192DE"/></linearGradient></defs></svg>