<svg width="72" height="72" fill="none" xmlns="http://www.w3.org/2000/svg"><path fill-rule="evenodd" clip-rule="evenodd" d="M34.13 14.037a3.85 3.85 0 0 1 3.74 0l16.8 9.333a3.85 3.85 0 0 1 1.98 3.366v18.528a3.85 3.85 0 0 1-1.98 3.366l-16.8 9.333a3.85 3.85 0 0 1-3.74 0l-16.8-9.333a3.85 3.85 0 0 1-1.98-3.366V26.736a3.85 3.85 0 0 1 1.98-3.366l16.8-9.333Zm2.04 3.06a.35.35 0 0 0-.34 0l-16.8 9.333a.35.35 0 0 0-.18.306v18.528a.35.35 0 0 0 .18.306l16.8 9.334a.35.35 0 0 0 .34 0l16.8-9.334a.35.35 0 0 0 .18-.306V26.736a.35.35 0 0 0-.18-.306l-16.8-9.334Z" fill="url(#a)"/><path fill-rule="evenodd" clip-rule="evenodd" d="M24.917 36c0-6.121 4.962-11.083 11.083-11.083S47.083 29.879 47.083 36 42.121 47.083 36 47.083 24.917 42.121 24.917 36ZM36 28.417a7.583 7.583 0 1 0 0 15.166 7.583 7.583 0 0 0 0-15.166Z" fill="url(#b)"/><defs><linearGradient id="a" x1="33.921" y1="13.552" x2="33.921" y2="58.448" gradientUnits="userSpaceOnUse"><stop offset="0" stop-color="#ED0189"/><stop offset="1" stop-color="#F3293B"/></linearGradient><linearGradient id="b" x1="33.921" y1="13.552" x2="33.921" y2="58.448" gradientUnits="userSpaceOnUse"><stop offset="0" stop-color="#ED0189"/><stop offset="1" stop-color="#F3293B"/></linearGradient></defs></svg>