<svg width="440" height="579" viewBox="0 0 440 579" fill="none" xmlns="http://www.w3.org/2000/svg">
<g opacity="0.05">
<path fill-rule="evenodd" clip-rule="evenodd" d="M67.6394 201.524C60.8811 264.319 61.1824 336.742 70.5868 399.281C75.7906 433.886 104.033 460.414 138.895 463.446L175.33 466.612C251.301 473.217 327.7 473.217 403.672 466.612L440.106 463.446C474.969 460.414 503.212 433.886 508.415 399.281C517.819 336.742 518.121 264.323 511.361 201.527C510.488 194.247 509.506 186.977 508.415 179.719C503.212 145.115 474.969 118.586 440.106 115.555L403.672 112.388C327.7 105.784 251.301 105.784 175.33 112.388L138.895 115.555C104.033 118.586 75.7906 145.115 70.5868 179.719C69.4956 186.976 68.5133 194.245 67.6394 201.524ZM178.463 148.44C252.348 142.017 326.653 142.017 400.538 148.44L436.972 151.607C455.169 153.189 469.912 167.037 472.628 185.1C472.911 186.976 473.186 188.853 473.454 190.731L339.294 265.264C308.328 282.468 270.673 282.468 239.706 265.264L105.549 190.732C105.815 188.854 106.09 186.977 106.372 185.1C109.088 167.037 123.831 153.189 142.029 151.607L178.463 148.44ZM477.88 229.668C482.561 284.376 480.809 339.499 472.628 393.899C469.912 411.964 455.169 425.811 436.972 427.394L400.538 430.562C326.653 436.984 252.348 436.984 178.463 430.562L142.029 427.394C123.831 425.811 109.088 411.964 106.372 393.899C98.1914 339.499 96.4408 284.379 101.12 229.668L222.132 296.897C264.029 320.173 314.972 320.173 356.867 296.897L477.88 229.668Z" fill="url(#paint0_linear_1_1602)"/>
</g>
<defs>
<linearGradient id="paint0_linear_1_1602" x1="43.4069" y1="521.752" x2="593.286" y2="380.431" gradientUnits="userSpaceOnUse">
<stop offset="0.0001" stop-color="#D74596"/>
<stop offset="0.365877" stop-color="#F2464E"/>
<stop offset="0.685771" stop-color="#857ADD"/>
<stop offset="1" stop-color="#0192DE"/>
</linearGradient>
</defs>
</svg>
