<svg width="48" height="49" viewBox="0 0 48 49" fill="none" xmlns="http://www.w3.org/2000/svg">
<rect x="0.5" y="1" width="47" height="47" rx="23.5" fill="white"/>
<rect x="0.5" y="1" width="47" height="47" rx="23.5" stroke="url(#paint0_linear_2414_757)"/>
<path d="M20.5478 31.0408L27.0885 24.5L20.5478 17.9593C20.499 17.9105 20.4562 17.8579 20.4196 17.8024C20.1888 17.4529 20.2005 16.9903 20.4547 16.6522C20.4828 16.6149 20.5138 16.5791 20.5478 16.5451C20.6522 16.4407 20.7739 16.3642 20.9037 16.3156C21.0774 16.2506 21.2655 16.2356 21.4459 16.2705C21.635 16.3071 21.8155 16.3986 21.962 16.5451L29.2098 23.7929C29.3974 23.9805 29.5027 24.2348 29.5027 24.5C29.5027 24.7653 29.3974 25.0196 29.2098 25.2072L21.962 32.455C21.5715 32.8455 20.9383 32.8455 20.5478 32.455C20.499 32.4062 20.4562 32.3536 20.4196 32.2981C20.1633 31.91 20.2061 31.3825 20.5478 31.0408Z" fill="#131415"/>
<defs>
<linearGradient id="paint0_linear_2414_757" x1="-2.075" y1="55.1156" x2="57.494" y2="42.8101" gradientUnits="userSpaceOnUse">
<stop offset="0.0001" stop-color="#D74596"/>
<stop offset="0.365877" stop-color="#F2464E"/>
<stop offset="0.685771" stop-color="#857ADD"/>
<stop offset="1" stop-color="#0192DE"/>
</linearGradient>
</defs>
</svg>
