<svg width="72" height="72" viewBox="0 0 72 72" fill="none" xmlns="http://www.w3.org/2000/svg">
<path fill-rule="evenodd" clip-rule="evenodd" d="M34.1303 14.0368C35.293 13.3908 36.707 13.3908 37.8697 14.0368L54.6697 23.3701C55.8919 24.0492 56.65 25.3375 56.65 26.7356V45.2643C56.65 46.6626 55.8919 47.9509 54.6697 48.6299L37.8697 57.9632C36.707 58.6091 35.293 58.6093 34.1303 57.9632L17.3303 48.6299C16.108 47.9509 15.35 46.6626 15.35 45.2643V26.7356C15.35 25.3375 16.108 24.0492 17.3303 23.3701L34.1303 14.0368ZM36.1699 17.0964C36.0642 17.0376 35.9358 17.0376 35.8301 17.0964L19.03 26.4297C18.9189 26.4914 18.85 26.6085 18.85 26.7356V45.2643C18.85 45.3914 18.9189 45.5086 19.03 45.5704L35.8301 54.9037C35.9358 54.9623 36.0642 54.9623 36.1699 54.9037L52.9699 45.5704C53.0812 45.5086 53.15 45.3914 53.15 45.2643V26.7356C53.15 26.6085 53.0812 26.4914 52.9699 26.4297L36.1699 17.0964Z" fill="url(#paint0_linear_2406_652)"/>
<path fill-rule="evenodd" clip-rule="evenodd" d="M24.9167 36C24.9167 29.8788 29.8789 24.9167 36 24.9167C42.1213 24.9167 47.0833 29.8788 47.0833 36C47.0833 42.1213 42.1213 47.0833 36 47.0833C29.8789 47.0833 24.9167 42.1213 24.9167 36ZM36 28.4167C31.8119 28.4167 28.4167 31.8119 28.4167 36C28.4167 40.1881 31.8119 43.5833 36 43.5833C40.1881 43.5833 43.5833 40.1881 43.5833 36C43.5833 31.8119 40.1881 28.4167 36 28.4167Z" fill="url(#paint1_linear_2406_652)"/>
<defs>
<linearGradient id="paint0_linear_2406_652" x1="33.9207" y1="13.5523" x2="33.9207" y2="58.4477" gradientUnits="userSpaceOnUse">
<stop offset="0.0001" stop-color="#ED0189"/>
<stop offset="1" stop-color="#F3293B"/>
</linearGradient>
<linearGradient id="paint1_linear_2406_652" x1="33.9207" y1="13.5523" x2="33.9207" y2="58.4477" gradientUnits="userSpaceOnUse">
<stop offset="0.0001" stop-color="#ED0189"/>
<stop offset="1" stop-color="#F3293B"/>
</linearGradient>
</defs>
</svg>
