<svg width="72" height="72" viewBox="0 0 72 72" fill="none" xmlns="http://www.w3.org/2000/svg">
<path d="M40.6667 29C40.6667 27.067 42.2337 25.5 44.1667 25.5C46.0996 25.5 47.6667 27.067 47.6667 29C47.6667 30.933 46.0996 32.5 44.1667 32.5C42.2337 32.5 40.6667 30.933 40.6667 29Z" fill="url(#paint0_linear_2406_472)"/>
<path fill-rule="evenodd" clip-rule="evenodd" d="M24.9576 18.87C32.3054 18.2312 39.6946 18.2312 47.0425 18.87L50.5663 19.1763C53.9382 19.4694 56.6698 22.0353 57.1731 25.3822C58.2315 32.4212 58.2315 39.5789 57.1731 46.6179C56.6698 49.9648 53.9382 52.5305 50.5663 52.8238L47.0425 53.13C39.6946 53.7688 32.3054 53.7688 24.9576 53.13L21.4337 52.8238C18.0619 52.5305 15.3303 49.9648 14.827 46.6179C13.7685 39.5789 13.7685 32.4212 14.827 25.3822C15.3303 22.0353 18.0619 19.4694 21.4337 19.1763L24.9576 18.87ZM46.7394 22.3568C39.5933 21.7356 32.4067 21.7356 25.2607 22.3568L21.7368 22.6632C19.9767 22.8162 18.5508 24.1555 18.2881 25.9026C17.6872 29.8987 17.445 33.935 17.5615 37.9635L26.5959 28.9293C26.9367 28.5884 27.403 28.4033 27.8847 28.4174C28.3665 28.4316 28.8211 28.6438 29.1413 29.0041L37.708 38.6416L43.6132 36.6732C44.2738 36.4529 45.0018 36.6452 45.4675 37.1627L53.6787 46.2863C53.6913 46.224 53.7023 46.161 53.7119 46.0973C54.7185 39.4034 54.7185 32.5966 53.7119 25.9026C53.4491 24.1555 52.0232 22.8162 50.2632 22.6632L46.7394 22.3568ZM51.4471 49.0387L43.6326 40.3561L37.7201 42.3269C37.0558 42.5483 36.3239 42.3525 35.8586 41.8294L27.7584 32.7166L17.8565 42.6185C17.9703 43.7808 18.1142 44.9407 18.2881 46.0973C18.5508 47.8445 19.9767 49.1838 21.7368 49.3369L25.2607 49.6433C32.4067 50.2644 39.5933 50.2644 46.7394 49.6433L50.2632 49.3369C50.6802 49.3007 51.0785 49.1978 51.4471 49.0387Z" fill="url(#paint1_linear_2406_472)"/>
<defs>
<linearGradient id="paint0_linear_2406_472" x1="33.7881" y1="18.3909" x2="33.7881" y2="53.6091" gradientUnits="userSpaceOnUse">
<stop offset="0.0001" stop-color="#ED0189"/>
<stop offset="1" stop-color="#F3293B"/>
</linearGradient>
<linearGradient id="paint1_linear_2406_472" x1="33.7881" y1="18.3909" x2="33.7881" y2="53.6091" gradientUnits="userSpaceOnUse">
<stop offset="0.0001" stop-color="#ED0189"/>
<stop offset="1" stop-color="#F3293B"/>
</linearGradient>
</defs>
</svg>
