<svg width="72" height="72" viewBox="0 0 72 72" fill="none" xmlns="http://www.w3.org/2000/svg">
<path d="M49.4167 33.6666C47.8057 33.6666 46.5 34.9724 46.5 36.5833C46.5 38.1942 47.8057 39.5 49.4167 39.5C51.0276 39.5 52.3333 38.1942 52.3333 36.5833C52.3333 34.9724 51.0276 33.6666 49.4167 33.6666Z" fill="url(#paint0_linear_2406_532)"/>
<path fill-rule="evenodd" clip-rule="evenodd" d="M17.7373 26.9357L22.5833 26.3971V17.1304C22.5833 15.6293 23.7268 14.3755 25.2214 14.2375C32.392 13.5756 39.608 13.5756 46.7786 14.2375C48.2731 14.3755 49.4167 15.6293 49.4167 17.1304V26.3971L54.2628 26.9357C56.0508 27.1345 57.5259 28.4258 57.9595 30.1718C59.2797 35.4892 59.2797 41.0486 57.9595 46.3658L57.5318 48.0883C57.3381 48.8688 56.6374 49.4166 55.8333 49.4166H49.4167V54.8603C49.4167 56.3116 48.3167 57.5271 46.8726 57.6715C39.6423 58.3946 32.3577 58.3946 25.1274 57.6715C23.6832 57.5271 22.5833 56.3116 22.5833 54.8603V49.4166H16.1667C15.3626 49.4166 14.662 48.8688 14.4683 48.0883L14.0406 46.3658C12.7204 41.0486 12.7204 35.4892 14.0406 30.1718C14.4742 28.4258 15.9492 27.1345 17.7373 26.9357ZM45.9167 26.059C39.3166 25.5178 32.6834 25.5178 26.0833 26.059V17.6741C32.6818 17.0968 39.3182 17.0968 45.9167 17.6741V26.059ZM45.9167 46.5037C45.9125 46.1353 45.6763 45.8179 45.341 45.6996C39.126 45.1485 32.8743 45.1485 26.6591 45.6994C26.3208 45.8191 26.0834 46.1411 26.0834 46.514V47.6666L26.0833 47.6813V54.2478C32.6799 54.8689 39.3201 54.8689 45.9167 54.2478V46.5037ZM54.4648 45.9166H49.4167V45.1396C49.4167 43.6883 48.3167 42.4729 46.8726 42.3284C46.5567 42.2969 46.2405 42.2666 45.9244 42.2379C45.7918 42.2111 45.6572 42.1901 45.5202 42.1754C39.1918 41.4936 32.8082 41.4936 26.4798 42.1754C26.343 42.1901 26.2083 42.2111 26.0758 42.2379C25.7596 42.2666 25.4434 42.2969 25.1274 42.3284C23.6832 42.4729 22.5833 43.6883 22.5833 45.1396V45.9166H17.5354L17.4375 45.5225C16.2548 40.759 16.2548 35.7788 17.4375 31.0153C17.518 30.691 17.7919 30.4512 18.124 30.4143L22.9827 29.8743C31.6343 28.9127 40.3659 28.9127 49.0174 29.8743L53.8761 30.4143C54.2082 30.4512 54.4821 30.691 54.5626 31.0153C55.7454 35.7788 55.7454 40.759 54.5626 45.5225L54.4648 45.9166Z" fill="url(#paint1_linear_2406_532)"/>
<defs>
<linearGradient id="paint0_linear_2406_532" x1="33.6892" y1="13.7411" x2="33.6892" y2="58.2138" gradientUnits="userSpaceOnUse">
<stop offset="0.0001" stop-color="#ED0189"/>
<stop offset="1" stop-color="#F3293B"/>
</linearGradient>
<linearGradient id="paint1_linear_2406_532" x1="33.6892" y1="13.7411" x2="33.6892" y2="58.2138" gradientUnits="userSpaceOnUse">
<stop offset="0.0001" stop-color="#ED0189"/>
<stop offset="1" stop-color="#F3293B"/>
</linearGradient>
</defs>
</svg>
