<svg width="48" height="48" viewBox="0 0 48 48" fill="none" xmlns="http://www.w3.org/2000/svg">
<rect x="0.5" y="0.5" width="47" height="47" rx="23.5" fill="white"/>
<rect x="0.5" y="0.5" width="47" height="47" rx="23.5" stroke="url(#paint0_linear_2414_817)"/>
<path d="M29.6585 16.9289C30.049 16.5384 30.6822 16.5384 31.0727 16.9289C31.4632 17.3194 31.4632 17.9526 31.0727 18.3431L25.4158 24L31.0727 29.6568C31.4632 30.0473 31.4632 30.6805 31.0727 31.071C30.6822 31.4615 30.049 31.4615 29.6585 31.071L24.0016 25.4142L18.3448 31.071C18.3387 31.0771 18.3325 31.0831 18.3263 31.089C17.9346 31.4614 17.315 31.4554 16.9306 31.071C16.6377 30.7781 16.5645 30.3487 16.7109 29.9876C16.7597 29.8672 16.833 29.7544 16.9306 29.6568L22.5874 24L16.9306 18.3431C16.5401 17.9526 16.5401 17.3194 16.9306 16.9289C17.3211 16.5384 17.9543 16.5384 18.3448 16.9289L24.0016 22.5857L29.6585 16.9289Z" fill="#131415"/>
<defs>
<linearGradient id="paint0_linear_2414_817" x1="-2.075" y1="54.6156" x2="57.494" y2="42.3101" gradientUnits="userSpaceOnUse">
<stop offset="0.0001" stop-color="#D74596"/>
<stop offset="0.365877" stop-color="#F2464E"/>
<stop offset="0.685771" stop-color="#857ADD"/>
<stop offset="1" stop-color="#0192DE"/>
</linearGradient>
</defs>
</svg>
